<?xml version="1.0" encoding="utf-8" standalone="no"?><!DOCTYPE svg PUBLIC "-//W3C//DTD SVG 20010904//EN" "http://www.w3.org/TR/2001/REC-SVG-20010904/DTD/svg10.dtd"><svg xmlns="http://www.w3.org/2000/svg" width="432" height="316" xmlns:xlink="http://www.w3.org/1999/xlink"><source><![CDATA[Title: 初始化Handler
Handler->Handler:1.new Handler
Handler->Looper:2.myLooper
Looper->ThreadLocal:3.get
Handler->Looper:4.mQueue]]></source><desc>初始化Handler</desc><defs><marker viewBox="0 0 5 5" markerWidth="5" markerHeight="5" orient="auto" refX="5" refY="2.5" id="markerArrowBlock"><path d="M 0 0 L 5 2.5 L 0 5 z"></path></marker><marker viewBox="0 0 9.6 16" markerWidth="4" markerHeight="16" orient="auto" refX="9.6" refY="8" id="markerArrowOpen"><path d="M 9.6,8 1.92,16 0,13.7 5.76,8 0,2.286 1.92,0 9.6,8 z"></path></marker></defs><g class="title"><rect x="10" y="10" width="125.203125" height="28" stroke="#000000" fill="#ffffff" style="stroke-width: 2;"></rect><text x="15" y="29.5" style="font-size: 16px; font-family: &quot;Andale Mono&quot;, monospace;"><tspan x="15">初始化Handler</tspan></text></g><g class="actor"><rect x="10" y="48" width="87.203125" height="38" stroke="#000000" fill="#ffffff" style="stroke-width: 2;"></rect><text x="20" y="72.5" style="font-size: 16px; font-family: &quot;Andale Mono&quot;, monospace;"><tspan x="20">Handler</tspan></text></g><g class="actor"><rect x="10" y="258" width="87.203125" height="38" stroke="#000000" fill="#ffffff" style="stroke-width: 2;"></rect><text x="20" y="282.5" style="font-size: 16px; font-family: &quot;Andale Mono&quot;, monospace;"><tspan x="20">Handler</tspan></text></g><line x1="53.6015625" x2="53.6015625" y1="86" y2="258" stroke="#000000" fill="none" style="stroke-width: 2;"></line><g class="actor"><rect x="179.609375" y="48" width="77.609375" height="38" stroke="#000000" fill="#ffffff" style="stroke-width: 2;"></rect><text x="189.609375" y="72.5" style="font-size: 16px; font-family: &quot;Andale Mono&quot;, monospace;"><tspan x="189.609375">Looper</tspan></text></g><g class="actor"><rect x="179.609375" y="258" width="77.609375" height="38" stroke="#000000" fill="#ffffff" style="stroke-width: 2;"></rect><text x="189.609375" y="282.5" style="font-size: 16px; font-family: &quot;Andale Mono&quot;, monospace;"><tspan x="189.609375">Looper</tspan></text></g><line x1="218.4140625" x2="218.4140625" y1="86" y2="258" stroke="#000000" fill="none" style="stroke-width: 2;"></line><g class="actor"><rect x="277.21875" y="48" width="125.609375" height="38" stroke="#000000" fill="#ffffff" style="stroke-width: 2;"></rect><text x="287.21875" y="72.5" style="font-size: 16px; font-family: &quot;Andale Mono&quot;, monospace;"><tspan x="287.21875">ThreadLocal</tspan></text></g><g class="actor"><rect x="277.21875" y="258" width="125.609375" height="38" stroke="#000000" fill="#ffffff" style="stroke-width: 2;"></rect><text x="287.21875" y="282.5" style="font-size: 16px; font-family: &quot;Andale Mono&quot;, monospace;"><tspan x="287.21875">ThreadLocal</tspan></text></g><line x1="340.0234375" x2="340.0234375" y1="86" y2="258" stroke="#000000" fill="none" style="stroke-width: 2;"></line><g class="signal"><text x="78.6015625" y="120" style="font-size: 16px; font-family: &quot;Andale Mono&quot;, monospace;"><tspan x="78.6015625">1.new Handler</tspan></text><line x1="53.6015625" x2="73.6015625" y1="106" y2="106" stroke="#000000" fill="none" style="stroke-width: 2;"></line><line x1="73.6015625" x2="73.6015625" y1="106" y2="129" stroke="#000000" fill="none" style="stroke-width: 2;"></line><line x1="73.6015625" x2="53.6015625" y1="129" y2="129" stroke="#000000" fill="none" style="stroke-width: 2; marker-end: url(&quot;#markerArrowBlock&quot;);"></line></g><g class="signal"><text x="88" y="154.5" style="font-size: 16px; font-family: &quot;Andale Mono&quot;, monospace;"><tspan x="88">2.myLooper</tspan></text><line x1="53.6015625" x2="218.4140625" y1="162" y2="162" stroke="#000000" fill="none" style="stroke-width: 2; marker-end: url(&quot;#markerArrowBlock&quot;);"></line></g><g class="signal"><text x="255.21875" y="192.5" style="font-size: 16px; font-family: &quot;Andale Mono&quot;, monospace;"><tspan x="255.21875">3.get</tspan></text><line x1="218.4140625" x2="340.0234375" y1="200" y2="200" stroke="#000000" fill="none" style="stroke-width: 2; marker-end: url(&quot;#markerArrowBlock&quot;);"></line></g><g class="signal"><text x="97.6015625" y="230.5" style="font-size: 16px; font-family: &quot;Andale Mono&quot;, monospace;"><tspan x="97.6015625">4.mQueue</tspan></text><line x1="53.6015625" x2="218.4140625" y1="238" y2="238" stroke="#000000" fill="none" style="stroke-width: 2; marker-end: url(&quot;#markerArrowBlock&quot;);"></line></g></svg>