<?xml version="1.0" encoding="utf-8" standalone="no"?><!DOCTYPE svg PUBLIC "-//W3C//DTD SVG 20010904//EN" "http://www.w3.org/TR/2001/REC-SVG-20010904/DTD/svg10.dtd"><svg xmlns="http://www.w3.org/2000/svg" width="608" height="364" xmlns:xlink="http://www.w3.org/1999/xlink"><source><![CDATA[Title:分发消息prepare处理
Note left of Looper: 静态sThreadLocal
Looper->Looper:2.prepare
Looper->Looper:3.new Looper
Looper->Looper:4.new Looper:new MessageQueue
Looper->ThreadLocal:4.set]]></source><desc>分发消息prepare处理</desc><defs><marker viewBox="0 0 5 5" markerWidth="5" markerHeight="5" orient="auto" refX="5" refY="2.5" id="markerArrowBlock"><path d="M 0 0 L 5 2.5 L 0 5 z"></path></marker><marker viewBox="0 0 9.6 16" markerWidth="4" markerHeight="16" orient="auto" refX="9.6" refY="8" id="markerArrowOpen"><path d="M 9.6,8 1.92,16 0,13.7 5.76,8 0,2.286 1.92,0 9.6,8 z"></path></marker></defs><g class="title"><rect x="10" y="10" width="173.203125" height="28" stroke="#000000" fill="#ffffff" style="stroke-width: 2;"></rect><text x="15" y="29.5" style="font-size: 16px; font-family: &quot;Andale Mono&quot;, monospace;"><tspan x="15">分发消息prepare处理</tspan></text></g><g class="actor"><rect x="158.4140625" y="48" width="77.609375" height="38" stroke="#000000" fill="#ffffff" style="stroke-width: 2;"></rect><text x="168.4140625" y="72.5" style="font-size: 16px; font-family: &quot;Andale Mono&quot;, monospace;"><tspan x="168.4140625">Looper</tspan></text></g><g class="actor"><rect x="158.4140625" y="306" width="77.609375" height="38" stroke="#000000" fill="#ffffff" style="stroke-width: 2;"></rect><text x="168.4140625" y="330.5" style="font-size: 16px; font-family: &quot;Andale Mono&quot;, monospace;"><tspan x="168.4140625">Looper</tspan></text></g><line x1="197.21875" x2="197.21875" y1="86" y2="306" stroke="#000000" fill="none" style="stroke-width: 2;"></line><g class="actor"><rect x="452.8515625" y="48" width="125.609375" height="38" stroke="#000000" fill="#ffffff" style="stroke-width: 2;"></rect><text x="462.8515625" y="72.5" style="font-size: 16px; font-family: &quot;Andale Mono&quot;, monospace;"><tspan x="462.8515625">ThreadLocal</tspan></text></g><g class="actor"><rect x="452.8515625" y="306" width="125.609375" height="38" stroke="#000000" fill="#ffffff" style="stroke-width: 2;"></rect><text x="462.8515625" y="330.5" style="font-size: 16px; font-family: &quot;Andale Mono&quot;, monospace;"><tspan x="462.8515625">ThreadLocal</tspan></text></g><line x1="515.65625" x2="515.65625" y1="86" y2="306" stroke="#000000" fill="none" style="stroke-width: 2;"></line><g class="note"><rect x="20" y="106" width="157.21875" height="28" stroke="#000000" fill="#ffffff" style="stroke-width: 2;"></rect><text x="25" y="125.5" style="font-size: 16px; font-family: &quot;Andale Mono&quot;, monospace;"><tspan x="25">静态sThreadLocal</tspan></text></g><g class="signal"><text x="222.21875" y="168" style="font-size: 16px; font-family: &quot;Andale Mono&quot;, monospace;"><tspan x="222.21875">2.prepare</tspan></text><line x1="197.21875" x2="217.21875" y1="154" y2="154" stroke="#000000" fill="none" style="stroke-width: 2;"></line><line x1="217.21875" x2="217.21875" y1="154" y2="177" stroke="#000000" fill="none" style="stroke-width: 2;"></line><line x1="217.21875" x2="197.21875" y1="177" y2="177" stroke="#000000" fill="none" style="stroke-width: 2; marker-end: url(&quot;#markerArrowBlock&quot;);"></line></g><g class="signal"><text x="222.21875" y="206" style="font-size: 16px; font-family: &quot;Andale Mono&quot;, monospace;"><tspan x="222.21875">3.new Looper</tspan></text><line x1="197.21875" x2="217.21875" y1="192" y2="192" stroke="#000000" fill="none" style="stroke-width: 2;"></line><line x1="217.21875" x2="217.21875" y1="192" y2="215" stroke="#000000" fill="none" style="stroke-width: 2;"></line><line x1="217.21875" x2="197.21875" y1="215" y2="215" stroke="#000000" fill="none" style="stroke-width: 2; marker-end: url(&quot;#markerArrowBlock&quot;);"></line></g><g class="signal"><text x="222.21875" y="244" style="font-size: 16px; font-family: &quot;Andale Mono&quot;, monospace;"><tspan x="222.21875">4.new Looper:new MessageQueue</tspan></text><line x1="197.21875" x2="217.21875" y1="230" y2="230" stroke="#000000" fill="none" style="stroke-width: 2;"></line><line x1="217.21875" x2="217.21875" y1="230" y2="253" stroke="#000000" fill="none" style="stroke-width: 2;"></line><line x1="217.21875" x2="197.21875" y1="253" y2="253" stroke="#000000" fill="none" style="stroke-width: 2; marker-end: url(&quot;#markerArrowBlock&quot;);"></line></g><g class="signal"><text x="332.4375" y="278.5" style="font-size: 16px; font-family: &quot;Andale Mono&quot;, monospace;"><tspan x="332.4375">4.set</tspan></text><line x1="197.21875" x2="515.65625" y1="286" y2="286" stroke="#000000" fill="none" style="stroke-width: 2; marker-end: url(&quot;#markerArrowBlock&quot;);"></line></g></svg>